PathFileType	4	(X/Y/Z)	C:\Users\°ÂÌØÂü\Desktop\20210112\bx_y_10_902-Unnamed.trc
DataRate	CameraRate	NumFrames	NumMarkers	Units	OrigDataRate	OrigDataStartFrame	OrigNumFrames
50.00	50.00	       5	0	mm	50.00	65	       516
Frame#	Time	
		

65	1.280	-763.88977	210.16681	801.17114	-826.06799	281.55130	862.39172	-847.38861	-78.45040	855.79950	-851.98035	253.25305	618.70837				-767.79767	10.86911	523.44714	-835.39636	247.16714	563.04712	-855.27362	260.92496	483.36722	-772.71283	204.18097	533.50806	-338.43375	-72.26806	1063.59033	-664.31134	-70.35132	160.07948	-722.50275	157.53816	222.25175	-776.45007	228.04808	200.81624	-622.39465	-80.44786	157.10843	-882.95227	295.90549	144.63080	-678.68378	50.96479	164.02654	-605.87866	19.48693	167.82671	-563.41681	-36.72934	163.66182	-678.32043	175.62494	161.98967	-596.92896	221.18114	172.86133	-665.21167	298.83920	159.86974	-627.47119	306.25287	162.09760	-562.05988	257.25082	164.41406	-528.23761	303.77966	146.16510	-109.25177	85.59138	1218.40332	-854.65680	286.63745	731.65680	-863.37207	-62.80721	701.44238	-518.50665	-72.01289	142.79706				-926.05048	87.42055	1100.76660	-774.71344	-15.14688	201.10056	-799.61908	46.23620	171.62389	-800.68073	177.72433	181.12958	-852.21027	-44.12499	469.93930	-876.02838	-78.54763	141.55200							-828.93866	-32.31657	556.07709													-766.45612	-18.23133	795.07996	
66	1.300	-765.33405	209.41212	800.87610	-827.97290	280.67078	862.22662	-848.80823	-80.06274	855.81213	-852.64404	252.42613	617.84625	-801.97388	143.13496	564.69012				-835.91791	246.99782	562.92743	-855.77966	260.50412	483.17737	-773.09717	204.06555	533.67529				-664.17273	-70.44232	160.02113	-722.64960	157.64491	222.27734	-776.36090	228.14053	200.80777	-622.36176	-80.62465	156.93842	-882.86426	295.68457	144.27837	-678.61890	51.18240	164.18932	-605.87866	19.48693	167.82671	-563.32233	-36.80164	163.67102	-678.46063	175.28430	162.07678	-596.95947	221.02145	172.93788	-665.14594	298.75589	159.95114	-627.54291	305.94278	161.78964	-562.17133	256.97656	164.58105	-528.17462	303.91663	146.31383	-107.82965	85.86889	1202.83594	-856.12720	286.44934	731.73004	-863.51587	-64.52237	701.26074	-518.26825	-72.39592	143.16208				-925.03265	86.07950	1101.76917	-774.78943	-15.06308	201.01508	-799.39880	46.16338	171.90585	-801.01398	178.27919	181.45540	-853.09729	-44.57691	469.52899	-876.02838	-78.54763	141.55200							-830.31653	-33.64690	556.22845													-767.76111	-19.16321	794.68835	
67	1.320				-829.63013	279.91501	861.88715	-849.64099	-80.62120	855.24463	-852.95679	251.43059	617.56622	-803.08582	142.72308	564.18604	-341.18240	244.18968	1064.96411	-836.69092	246.14861	562.40924	-856.41632	260.13354	483.05017	-773.77240	203.21147	533.92255	-769.21259	9.41699	523.49426	-664.22980	-70.40676	160.00348	-722.77521	157.58366	222.38785	-776.52161	228.44437	200.88264	-622.39905	-80.70610	156.88951	-882.82837	295.68387	144.31630	-678.64606	51.27799	163.97121	-605.80334	19.65255	167.99332	-563.18829	-36.79604	163.52858	-678.59991	175.37416	161.93695	-597.19244	220.85443	172.91631	-665.14594	298.75589	159.95114	-627.59283	305.71704	162.02580	-562.46692	256.60684	164.42300	-528.17462	303.91663	146.31383	-106.70937	85.83156	1188.20313	-857.55664	285.62146	730.89545	-864.76636	-65.11239	700.86163	-518.02783	-72.65698	142.91470				-924.47919	85.15224	1102.03027	-774.80011	-14.94654	200.89044	-799.43402	46.09549	171.61659	-801.18359	178.47713	181.30063	-854.15820	-44.64464	468.78265	-876.02838	-78.54763	141.55200							-830.84326	-34.16717	555.66687													-768.69489	-19.79865	794.25397	
68	1.340	-768.00745	208.70064	800.45624	-831.40607	279.30322	861.67279	-850.58325	-81.69984	855.19531				-803.95984	141.77269	564.49384				-837.38489	245.87529	562.41376	-856.87988	259.66513	483.39194	-774.56226	202.92912	533.93988	-770.53925	9.12726	523.20911	-664.31134	-70.35132	160.07948	-723.02997	157.39552	222.34973	-776.59644	228.53635	200.86679	-622.28204	-80.73733	156.97849	-882.49652	296.18716	144.75172	-678.57965	51.08559	164.11038	-605.84277	19.61049	167.91391	-563.31006	-36.85386	163.65584	-678.59991	175.37416	161.93695	-597.25500	220.63904	172.75757	-665.03326	298.71298	160.08867	-627.46722	305.20758	161.90550	-562.49603	256.68130	164.43423	-528.12921	303.89764	146.17197	-105.74133	86.16237	1173.92078	-859.20349	285.39261	731.53156	-865.98718	-65.97647	700.42023	-518.16272	-72.41710	143.39572	-854.78418	252.02341	619.93384	-922.90662	83.73560	1102.02649	-774.86823	-14.96221	200.73705	-799.23468	46.26564	171.58183	-801.00153	178.93726	180.88603	-854.85095	-45.41457	468.46811	-876.03320	-78.59757	141.50241							-832.10925	-34.31452	555.19910													-769.29120	-20.30685	794.08105	
69	1.360	-769.08258	208.32109	799.62708	-832.48041	278.65128	861.63092	-851.31042	-82.34830	854.61469	-337.11935	243.02789	1039.78430	-804.60748	141.88570	564.59259				-838.09253	245.56761	562.26453	-857.83875	259.56924	483.51050	-775.20203	202.58789	533.76367	-771.41626	9.13365	522.65161	-664.14032	-70.45183	160.03699	-723.24329	157.29527	222.43196	-776.85889	228.28580	201.13354	-622.30127	-80.65176	156.85106	-882.55463	296.16583	144.67320	-678.68378	50.96479	164.02654	-605.87866	19.48693	167.82671	-563.21869	-36.84326	163.65819	-678.59991	175.37416	161.93695	-597.35620	220.69646	172.98149	-665.00867	298.35669	160.02808	-627.78925	305.08905	161.76678	-562.63306	256.42139	164.28491	-528.14429	304.12253	146.24701	-104.51965	86.18120	1159.95898	-860.84497	284.68512	731.24036	-866.80334	-66.89352	700.00513	-518.14581	-72.66973	143.30997				-922.72339	83.11683	1103.43103	-774.82153	-15.20345	200.79756	-799.55548	45.98416	171.92909	-801.22827	178.81026	180.94989	-855.14093	-46.24702	468.40390	-876.03320	-78.59757	141.50241							-832.66675	-34.98948	554.91711													-770.12811	-21.06890	793.56183	
